<svg xmlns="http://www.w3.org/2000/svg" viewBox="0 0 128 128"><path fill="#f05138" d="M126.33 34.06a39.32 39.32 0 0 0-.79-7.83 28.78 28.78 0 0 0-2.65-7.58 28.84 28.84 0 0 0-4.76-6.32 23.42 23.42 0 0 0-6.62-4.55 27.27 27.27 0 0 0-7.68-2.62c-2.65-.56-5.56-.56-8.21-.81H32.12a45.74 45.74 0 0 0-6.09.56 21.82 21.82 0 0 0-5.82 1.82c-.85.4-1.7.8-2.51 1.24A25.6 25.6 0 0 0 14 11.85a22.2 22.2 0 0 0-4.76 6.32 23.82 23.82 0 0 0-2.64 7.58c-.85 2.62-.85 5.3-1 7.83v58.84a39.32 39.32 0 0 0 .79 7.83 28.78 28.78 0 0 0 2.65 7.58 28.84 28.84 0 0 0 4.76 6.32 23.42 23.42 0 0 0 6.62 4.55 27.27 27.27 0 0 0 7.68 2.62c2.65.56 5.56.56 8.21.81h63.45c2.65 0 5.56-.25 8.21-.81a27.14 27.14 0 0 0 7.68-2.62 30.27 30.27 0 0 0 6.62-4.55 22.2 22.2 0 0 0 4.76-6.32 23.82 23.82 0 0 0 2.64-7.58c.85-2.62.85-5.3 1-7.83V34.06z"/><path fill="#fff" d="M85 96.5c-11.74 6.75-27.88 7.44-44.11-.01A65.84 65.84 0 0 1 13.78 74.7c5.82 4.84 12.8 8.63 20.37 10.73C55.94 92.15 77.45 85 102.67 60.72a87.6 87.6 0 0 0 5.56-8.28c4.23 8.58 5.8 18.3 3.96 27.54-.35-.16-.73-.33-1.11-.5a5.4 5.4 0 0 0-4.13.11c-1.93 1.02-3.58 4.1-3.58 4.1s-9.56 6.7-18.37 12.82z"/></svg>
